<svg width="48" height="48" viewBox="0 0 48 48" fill="none" xmlns="http://www.w3.org/2000/svg">
<path fill-rule="evenodd" clip-rule="evenodd" d="M24 48C37.2548 48 48 37.2548 48 24C48 10.7452 37.2548 0 24 0C10.7452 0 0 10.7452 0 24C0 37.2548 10.7452 48 24 48ZM35.9999 30.56V34.56C36.003 35.3108 35.6893 36.0282 35.136 36.5358C34.5827 37.0434 33.8411 37.2942 33.0933 37.2266C28.9904 36.7808 25.0493 35.3788 21.5866 33.1333C18.365 31.0862 15.6337 28.3549 13.5866 25.1333C11.3332 21.6549 9.93091 17.6946 9.49325 13.5733C9.42588 12.8278 9.67495 12.0883 10.1796 11.5355C10.6843 10.9826 11.398 10.6673 12.1466 10.6666H16.1466C17.4851 10.6535 18.6259 11.6346 18.8133 12.96C18.9821 14.2401 19.2952 15.4969 19.7466 16.7066C20.1129 17.6811 19.8786 18.7797 19.1466 19.52L17.4533 21.2133C19.3513 24.5514 22.1152 27.3152 25.4533 29.2133L27.1466 27.52C27.8868 26.7879 28.9854 26.5537 29.9599 26.92C31.1696 27.3714 32.4265 27.6845 33.7066 27.8533C35.0473 28.0424 36.0335 29.2064 35.9999 30.56Z" fill="black"/>
</svg>
